<?xml version="1.0" standalone="no"?>
<!DOCTYPE svg PUBLIC "-//W3C//DTD SVG 20010904//EN"
 "http://www.w3.org/TR/2001/REC-SVG-20010904/DTD/svg10.dtd">
<svg version="1.0" xmlns="http://www.w3.org/2000/svg"
 width="688.000000pt" height="279.000000pt" viewBox="0 0 688.000000 279.000000"
 preserveAspectRatio="xMidYMid meet">

<g transform="translate(0.000000,279.000000) scale(0.100000,-0.100000)"
fill="#000000" stroke="none">
<path d="M3658 1111 c-1743 -328 -3168 -599 -3168 -603 0 -14 201 -108 312
-146 392 -136 734 -144 1078 -27 180 62 299 78 575 78 132 1 294 -5 360 -11
322 -32 398 -44 1620 -251 672 -114 957 -144 1370 -145 238 0 327 3 430 18
219 30 444 96 580 169 l60 32 3 743 2 742 -27 -1 c-16 -1 -1453 -270 -3195
-598z"/>
</g>
</svg>
